<svg width="57" height="57" viewBox="0 0 57 57" fill="none" xmlns="http://www.w3.org/2000/svg">
<path d="M26.125 16.625H30.875V21.375H26.125V16.625ZM26.125 26.125H30.875V40.375H26.125V26.125ZM28.5 4.75C15.39 4.75 4.75 15.39 4.75 28.5C4.75 41.61 15.39 52.25 28.5 52.25C41.61 52.25 52.25 41.61 52.25 28.5C52.25 15.39 41.61 4.75 28.5 4.75ZM28.5 47.5C18.0263 47.5 9.5 38.9737 9.5 28.5C9.5 18.0263 18.0263 9.5 28.5 9.5C38.9737 9.5 47.5 18.0263 47.5 28.5C47.5 38.9737 38.9737 47.5 28.5 47.5Z" fill="#28A745"/>
</svg>
