<svg width="16.000000" height="16.000000" viewBox="0 0 16 16" fill="none" xmlns="http://www.w3.org/2000/svg"
     xmlns:xlink="http://www.w3.org/1999/xlink">
    <desc>
        Created with Pixso.
    </desc>
    <defs>
        <clipPath id="clip5530_14571">
            <rect id="rating-star" width="16.000000" height="16.000000" fill="white" fill-opacity="0"/>
        </clipPath>
    </defs>
    <rect id="rating-star" width="16.000000" height="16.000000" fill="#FFFFFF" fill-opacity="0"/>
    <g clip-path="url(#clip5530_14571)">
        <path id="path1620"
              d="M8.45 2.93L9.77 5.66C9.84 5.81 9.98 5.92 10.14 5.94L13.04 6.38C13.44 6.45 13.61 6.93 13.33 7.23L11.22 9.41C11.11 9.53 11.06 9.68 11.09 9.84L11.6 12.97C11.67 13.38 11.23 13.69 10.86 13.49L8.24 12.01C8.09 11.93 7.9 11.93 7.75 12.01L5.13 13.49C4.76 13.69 4.32 13.38 4.39 12.97L4.9 9.84C4.93 9.68 4.88 9.53 4.77 9.41L2.66 7.23C2.38 6.93 2.55 6.45 2.95 6.38L5.85 5.94C6.01 5.92 6.15 5.81 6.22 5.66L7.54 2.93C7.73 2.55 8.26 2.55 8.45 2.93Z"
              fill="#FFB91D" fill-opacity="1.000000" fill-rule="nonzero"/>
        <path id="path1620"
              d="M9.77 5.66C9.84 5.81 9.98 5.92 10.14 5.94L13.04 6.38C13.44 6.45 13.61 6.93 13.33 7.23L11.22 9.41C11.11 9.53 11.06 9.68 11.09 9.84L11.6 12.97C11.67 13.38 11.23 13.69 10.86 13.49L8.24 12.01C8.09 11.93 7.9 11.93 7.75 12.01L5.13 13.49C4.76 13.69 4.32 13.38 4.39 12.97L4.9 9.84C4.93 9.68 4.88 9.53 4.77 9.41L2.66 7.23C2.38 6.93 2.55 6.45 2.95 6.38L5.85 5.94C6.01 5.92 6.15 5.81 6.22 5.66L7.54 2.93C7.73 2.55 8.26 2.55 8.45 2.93L9.77 5.66Z"
              stroke="#FFB91D" stroke-opacity="1.000000" stroke-width="1.200000"/>
    </g>
</svg>
