<?xml version="1.0" encoding="iso-8859-1"?>
<!-- Generator: Adobe Illustrator 19.0.0, SVG Export Plug-In . SVG Version: 6.00 Build 0)  -->
<svg xmlns="http://www.w3.org/2000/svg" xmlns:xlink="http://www.w3.org/1999/xlink" version="1.1" id="Capa_1" x="0px" y="0px" viewBox="0 0 512 512" style="enable-background:new 0 0 512 512;" xml:space="preserve" width="512px" height="512px">
<g>
	<g>
		<path d="M451.743,273.069h-59.999c-8.291,0-15,6.709-15,15c0,8.291,6.709,15,15,15h59.999c8.291,0,15-6.709,15-15    C466.742,279.778,460.033,273.069,451.743,273.069z" fill="#FFFFFF"/>
	</g>
</g>
<g>
	<g>
		<path d="M91.75,273.069H31.752c-8.291,0-15,6.709-15,15c0,8.291,6.709,15,15,15H91.75c8.291,0,15-6.709,15-15    C106.75,279.778,100.041,273.069,91.75,273.069z" fill="#FFFFFF"/>
	</g>
</g>
<g>
	<g>
		<path d="M242,423.066c-8.291,0-15,6.709-15,15v58.93c0,8.291,6.709,15,15,15s15-6.709,15-15v-58.93    C257,429.775,250.291,423.066,242,423.066z" fill="#FFFFFF"/>
	</g>
</g>
<g>
	<g>
		<path d="M146.285,383.53c-5.859-5.859-15.352-5.859-21.211,0l-42.421,42.421c-5.859,5.859-5.859,15.352,0,21.211    c5.859,5.859,15.352,5.86,21.211,0l42.421-42.421C152.144,398.881,152.144,389.388,146.285,383.53z" fill="#FFFFFF"/>
	</g>
</g>
<g>
	<g>
		<path d="M400.841,425.952l-42.421-42.421c-5.86-5.86-15.352-5.86-21.211,0c-5.859,5.859-5.859,15.352,0,21.211l42.421,42.421    c5.859,5.859,15.352,5.859,21.211,0S406.7,431.81,400.841,425.952z" fill="#FFFFFF"/>
	</g>
</g>
<g>
	<g>
		<path d="M241.747,122.072c-57.89,0-104.998,48.108-104.998,105.998c0,56.483,44.34,164.996,104.998,164.996    S346.745,284.553,346.745,228.07C346.745,170.18,299.637,122.072,241.747,122.072z" fill="#FFFFFF"/>
	</g>
</g>
<g>
	<g>
		<path d="M511.466,12.193c-2.183-7.998-10.459-12.759-18.413-10.532c-54.689,14.885-125.267,25.136-192.056,28.41V60.11    c69.349-3.318,142.884-13.976,199.936-29.505C508.932,28.437,513.649,20.19,511.466,12.193z" fill="#FFFFFF"/>
	</g>
</g>
<g>
	<g>
		<path d="M18.945,1.661C10.947-0.551,2.7,4.209,0.532,12.193c-2.183,7.998,2.549,16.245,10.532,18.413    C57.5,43.236,119.924,53.089,181,57.974V30.004c0-0.731,0.19-1.408,0.216-2.131C122.669,23.088,63.146,13.686,18.945,1.661z" fill="#FFFFFF"/>
	</g>
</g>
<g>
	<g>
		<path d="M241,0.005c-16.569,0-29.999,13.431-29.999,29.999V95.93c9.917-2.329,20.129-3.858,30.746-3.858    c10.069,0.001,19.808,1.293,29.252,3.394V30.004C270.999,13.435,257.569,0.005,241,0.005z" fill="#FFFFFF"/>
	</g>
</g>
<g>
</g>
<g>
</g>
<g>
</g>
<g>
</g>
<g>
</g>
<g>
</g>
<g>
</g>
<g>
</g>
<g>
</g>
<g>
</g>
<g>
</g>
<g>
</g>
<g>
</g>
<g>
</g>
<g>
</g>
</svg>
