<svg height="479pt" viewBox="0 0 479.88557 479" width="479pt" xmlns="http://www.w3.org/2000/svg"><path d="m304.058594 144.507812-32 8h-56l-40-8 32-48h64zm0 0" fill="#a8a8a8"/><path d="m96.058594 144.507812h288c8.835937 0 16 7.164063 16 16v160c0 8.835938-7.164063 16-16 16h-288c-8.835938 0-16-7.164062-16-16v-160c0-8.835937 7.164062-16 16-16zm0 0" fill="#b9b9b9"/><path d="m304.058594 240.507812c0 35.347657-28.652344 64-64 64-35.34375 0-64-28.652343-64-64 0-35.347656 28.65625-64 64-64 35.347656 0 64 28.652344 64 64zm0 0" fill="#a8a8a8"/><path d="m272.058594 240.507812c0 17.671876-14.328125 32-32 32s-32-14.328124-32-32c0-17.671874 14.328125-32 32-32s32 14.328126 32 32zm0 0" fill="#b9b9b9"/><path d="m128.058594 336.507812h-32c-8.835938 0-16-7.164062-16-16v-160c0-8.835937 7.164062-16 16-16h32zm0 0" fill="#a8a8a8"/><path d="m436.636719 102.796875c-1.59375-2.460937-4.402344-3.851563-7.324219-3.632813-2.921875.222657-5.488281 2.023438-6.6875 4.695313-1.203125 2.671875-.847656 5.785156.921875 8.121094 65.6875 93.878906 49.9375 222.191406-36.496094 297.398437-86.4375 75.210938-215.695312 73.070313-299.589843-4.960937l322.253906-322.253907c3.125-3.125 3.125-8.1875 0-11.3125l-.097656-.0625c-.109376-.121093-.148438-.28125-.261719-.402343-87.625-87.265625-227.21875-93.660157-322.457031-14.769531-95.234376 78.890624-114.933594 217.234374-45.503907 319.570312 1.585938 2.410156 4.351563 3.78125 7.230469 3.585938 2.878906-.199219 5.429688-1.929688 6.671875-4.535157 1.246094-2.605469.988281-5.679687-.667969-8.042969-63.828125-94.328124-46.710937-221.535156 39.78125-295.636718 86.492188-74.101563 214.820313-71.503906 298.242188 6.035156l-322.25 322.257812c-3.121094 3.125-3.121094 8.1875 0 11.3125 88.03125 87.796876 228.535156 93.832032 323.769531 13.90625 95.234375-79.925781 113.664063-219.351562 42.464844-321.273437zm0 0" fill="#e06661"/></svg>