<?xml version="1.0" encoding="iso-8859-1"?>
<!-- Generator: Adobe Illustrator 19.0.0, SVG Export Plug-In . SVG Version: 6.00 Build 0)  -->
<svg version="1.1" id="Layer_1" xmlns="http://www.w3.org/2000/svg" xmlns:xlink="http://www.w3.org/1999/xlink" x="0px" y="0px"
	 viewBox="0 0 508 508" style="enable-background:new 0 0 508 508;" xml:space="preserve">
<circle style="fill:#324A5E;" cx="254" cy="254" r="254"/>
<g>
	<polygon style="fill:#FFFFFF;" points="300.8,323.6 398.8,323.6 397.2,348.4 302.4,348.4 	"/>
	<polygon style="fill:#FFFFFF;" points="402,272.4 400,299.2 299.6,299.2 297.6,272.4 	"/>
	<polygon style="fill:#FFFFFF;" points="450,180.4 407.6,180.4 403.2,248 296.4,248 292,180.4 249.6,180.4 350,80 	"/>
</g>
<g>
	<polygon style="fill:#FF7058;" points="207.2,184.4 109.2,184.4 110.8,159.6 205.6,159.6 	"/>
	<polygon style="fill:#FF7058;" points="106,235.6 108,208.8 208.4,208.8 210.4,235.6 	"/>
	<polygon style="fill:#FF7058;" points="58,327.6 100.4,327.6 104.8,260 211.6,260 216,327.6 258.4,327.6 158,428 	"/>
</g>
<g>
</g>
<g>
</g>
<g>
</g>
<g>
</g>
<g>
</g>
<g>
</g>
<g>
</g>
<g>
</g>
<g>
</g>
<g>
</g>
<g>
</g>
<g>
</g>
<g>
</g>
<g>
</g>
<g>
</g>
</svg>
